PathFileType	4	(X/Y/Z)	C:\Users\WrightLab\Desktop\Jo\P4V17.trc
DataRate	CameraRate	NumFrames	NumMarkers	Units	OrigDataRate	OrigDataStartFrame	OrigNumFrames
100.00	100.00	       9	19	mm	100.00	373	       744
Frame#	Time	Headset_Front			Headset_Back			Headset_Left			Headset_Right			Left_Shoulder			Right_Shoulder			Sternum			C7			Left Elbow			Right Elbow			Left Wrist			Right Wrist			Left ASIS			Right ASIS			S2			Left Knee			Right Knee			Left Ankle			Right Ankle			
		X1	Y1	Z1	X2	Y2	Z2	X3	Y3	Z3	X4	Y4	Z4	X5	Y5	Z5	X6	Y6	Z6	X7	Y7	Z7	X8	Y8	Z8	X9	Y9	Z9	X10	Y10	Z10	X11	Y11	Z11	X12	Y12	Z12	X13	Y13	Z13	X14	Y14	Z14	X15	Y15	Z15	X16	Y16	Z16	X17	Y17	Z17	X18	Y18	Z18	X19	Y19	Z19	

373	3.720	-427.36703	1589.91260	37.17282										-389.60098	1467.53882	-255.98483	-696.20526	1490.94824	-204.49304	-517.20148	1414.64465	-126.58632	-551.09290	1518.02148	-279.33563	-275.31284	1105.62109	-239.75729	-866.83588	1158.09131	-186.20378	-313.59863	883.84552	-22.86007	-880.39563	892.56567	-36.33092	-421.48569	962.05359	-193.84541	-725.78998	1017.50256	-71.28725				-540.09998	506.48636	-319.87497	-728.70551	561.89874	43.77185	-711.61182	68.38836	-535.46521	-683.43903	64.90912	189.69522	
374	3.730	-423.67252	1588.95093	49.09184	-623.07477	1015.70496	-298.50241							-386.59995	1465.74268	-243.94566	-692.86279	1489.47144	-192.16064	-514.95270	1413.33557	-113.50551	-548.46466	1516.43225	-267.81122	-273.15460	1103.52808	-228.83949	-864.08838	1157.05994	-173.32671	-311.10110	879.26154	-14.96255	-876.48718	892.26416	-22.58253	-418.88257	961.15576	-182.85757	-722.05768	1017.78229	-56.56481				-536.60181	506.66217	-311.03525	-721.66986	562.17957	62.62281	-709.90314	71.56625	-531.86584	-676.02490	62.95234	198.31491	
375	3.740	-419.50143	1587.82019	61.19315	-620.87811	1014.01880	-284.90585							-383.61383	1464.11108	-233.01711	-689.98505	1488.14368	-179.49438	-511.11823	1412.12622	-102.99461	-545.58478	1514.92407	-255.43307	-270.90729	1102.18347	-218.88094	-861.01764	1155.68774	-159.27924	-307.96310	874.74072	-6.57531	-872.79193	891.47052	-7.37241	-415.79688	959.01508	-169.37836	-718.74609	1017.19330	-44.67376				-532.48224	506.32925	-299.06396	-714.65228	562.90906	78.11516	-708.89264	75.59905	-530.30768	-670.41058	60.04795	205.45456	
376	3.750	-415.82739	1586.86145	73.21051	-618.46008	1012.51996	-270.81351							-381.18494	1462.98450	-220.08571	-686.95667	1487.34387	-167.35521	-508.42215	1411.12939	-91.61011	-542.69257	1513.27002	-244.25429	-268.19647	1100.33716	-207.73334	-857.86975	1154.36487	-145.57961	-305.02206	870.55969	1.43625	-868.78802	890.70630	7.69191	-412.64194	958.89972	-157.87712	-714.56921	1017.49481	-28.38152				-528.21680	506.85529	-288.78940	-706.52148	563.45923	96.40998	-706.85150	79.33942	-526.68427	-664.50677	57.80862	210.56573	
377	3.760	-412.48730	1585.51416	84.64240	-616.06140	1010.95667	-255.56044							-378.52502	1460.95728	-208.46310	-684.06104	1485.62634	-155.80876	-505.12195	1409.76050	-79.07755	-540.47021	1512.42712	-233.74307	-266.27322	1098.67639	-197.64767	-854.62134	1153.23499	-131.82930	-301.68011	866.11310	8.98246	-864.89624	889.79578	21.33522	-409.09280	957.40710	-144.72762	-709.98315	1016.77930	-12.67119				-524.16913	506.24615	-276.16486	-698.98676	562.80371	112.82230	-706.67389	84.26614	-524.12170	-660.83881	56.15948	217.18433	
378	3.770	-408.27600	1584.56799	96.32646	-613.78339	1010.32117	-241.04941							-375.32690	1459.73718	-196.28384	-680.92249	1484.80225	-143.59171	-501.83234	1408.34229	-67.30952	-537.63873	1510.14929	-222.21284	-263.45105	1096.55457	-186.89975	-851.39551	1152.03137	-117.22176	-298.62082	861.69440	16.76190	-861.02057	889.19684	36.17375	-405.38882	957.13745	-131.89104	-704.76343	1016.85065	2.01813				-518.84088	505.65677	-263.50345	-691.28815	561.73602	129.73926	-703.88696	89.22279	-520.35663	-657.81122	54.94468	224.06171	
379	3.780	-404.72058	1583.55200	107.92778	-611.61469	1009.58264	-225.90535							-374.00861	1458.52112	-188.63339	-678.13727	1483.76270	-131.73929	-499.48108	1408.74548	-55.40661	-535.22131	1508.77686	-210.39491	-261.12814	1095.54919	-177.28415	-848.28516	1150.66296	-103.88137	-296.25006	858.35718	24.39377	-856.58972	887.94446	51.52117	-401.50964	955.96332	-119.18870	-699.38281	1016.85260	17.49942				-513.17395	504.81137	-248.98767	-683.47314	560.22565	144.76324	-701.66089	94.71133	-515.70074	-655.78699	54.10519	228.67751	
380	3.790	-401.37418	1583.88086	119.30544	-609.11603	1009.44452	-211.70226							-371.11075	1457.67664	-176.67020	-676.10468	1482.90564	-120.24513	-497.00992	1409.05701	-46.04937	-532.83722	1507.53821	-199.18471	-258.70511	1093.97217	-166.79572	-845.20258	1149.85571	-90.06912	-292.93347	854.92401	32.22187	-851.47156	887.31451	65.64584	-397.27316	955.34784	-107.78520	-692.20660	1018.10516	34.29432				-507.66605	502.88657	-232.83452	-674.90668	559.63074	157.75766	-698.41162	100.62943	-510.37643	-654.82764	53.88430	231.71875	
381	3.800	-396.36246	1584.66943	131.65805	-606.21326	1010.44812	-198.45766							-367.09457	1457.34839	-165.51335	-673.27704	1483.00696	-107.64892	-492.62259	1409.97449	-31.37204	-530.71564	1508.26575	-188.02498	-256.21722	1093.75159	-157.52225	-841.98523	1149.51941	-75.32105	-288.53479	851.67389	38.75526	-846.66327	886.76025	80.99828	-393.39014	955.41760	-96.50223	-686.28760	1018.98560	47.02817				-501.28339	500.42264	-215.77820	-666.07758	560.54974	169.29628	-694.72150	107.68847	-504.59869	-655.45392	52.62338	233.49706	
